<svg id="visual" viewBox="0 0 900 600" width="900" height="600" xmlns="http://www.w3.org/2000/svg" xmlns:xlink="http://www.w3.org/1999/xlink" version="1.1"><g stroke-width="1" stroke-linejoin="bevel"><path d="M472 307L526 379L572 327Z" fill="#00101c" stroke="#00101c"></path><path d="M526 379L563 376L572 327Z" fill="#08151e" stroke="#08151e"></path><path d="M676 285L598 212L572 327Z" fill="#03121d" stroke="#03121d"></path><path d="M572 327L598 212L472 307Z" fill="#05141e" stroke="#05141e"></path><path d="M362 222L367 333L472 307Z" fill="#0f1921" stroke="#0f1921"></path><path d="M472 307L381 407L526 379Z" fill="#131c22" stroke="#131c22"></path><path d="M418 470L566 477L526 379Z" fill="#131c22" stroke="#131c22"></path><path d="M526 379L566 477L563 376Z" fill="#0b171f" stroke="#0b171f"></path><path d="M699 385L676 285L572 327Z" fill="#05141e" stroke="#05141e"></path><path d="M598 212L533 171L472 307Z" fill="#151d23" stroke="#151d23"></path><path d="M367 333L381 407L472 307Z" fill="#131c22" stroke="#131c22"></path><path d="M699 385L572 327L563 376Z" fill="#0f1921" stroke="#0f1921"></path><path d="M381 407L418 470L526 379Z" fill="#03121d" stroke="#03121d"></path><path d="M566 477L699 385L563 376Z" fill="#151d23" stroke="#151d23"></path><path d="M533 171L362 222L472 307Z" fill="#08151e" stroke="#08151e"></path><path d="M676 285L662 198L598 212Z" fill="#0f1921" stroke="#0f1921"></path><path d="M598 212L595 93L533 171Z" fill="#08151e" stroke="#08151e"></path><path d="M816 232L662 198L676 285Z" fill="#171e24" stroke="#171e24"></path><path d="M418 470L483 539L566 477Z" fill="#171e24" stroke="#171e24"></path><path d="M566 477L727 538L699 385Z" fill="#171e24" stroke="#171e24"></path><path d="M362 222L294 313L367 333Z" fill="#00101c" stroke="#00101c"></path><path d="M367 333L261 399L381 407Z" fill="#131c22" stroke="#131c22"></path><path d="M381 407L295 475L418 470Z" fill="#0d1820" stroke="#0d1820"></path><path d="M662 198L595 93L598 212Z" fill="#111a22" stroke="#111a22"></path><path d="M533 171L402 102L362 222Z" fill="#08151e" stroke="#08151e"></path><path d="M595 93L476 83L533 171Z" fill="#131c22" stroke="#131c22"></path><path d="M699 385L769 325L676 285Z" fill="#131c22" stroke="#131c22"></path><path d="M662 198L694 111L595 93Z" fill="#03121d" stroke="#03121d"></path><path d="M476 83L402 102L533 171Z" fill="#08151e" stroke="#08151e"></path><path d="M362 222L263 203L294 313Z" fill="#0d1820" stroke="#0d1820"></path><path d="M294 313L261 399L367 333Z" fill="#05141e" stroke="#05141e"></path><path d="M418 470L387 600L483 539Z" fill="#05141e" stroke="#05141e"></path><path d="M261 399L295 475L381 407Z" fill="#0b171f" stroke="#0b171f"></path><path d="M387 600L497 600L483 539Z" fill="#131c22" stroke="#131c22"></path><path d="M483 539L615 600L566 477Z" fill="#05141e" stroke="#05141e"></path><path d="M699 385L812 396L769 325Z" fill="#0b171f" stroke="#0b171f"></path><path d="M801 131L694 111L662 198Z" fill="#08151e" stroke="#08151e"></path><path d="M265 134L263 203L362 222Z" fill="#171e24" stroke="#171e24"></path><path d="M294 313L212 310L261 399Z" fill="#0d1820" stroke="#0d1820"></path><path d="M497 600L615 600L483 539Z" fill="#00101c" stroke="#00101c"></path><path d="M615 600L727 538L566 477Z" fill="#111a22" stroke="#111a22"></path><path d="M727 538L812 396L699 385Z" fill="#0b171f" stroke="#0b171f"></path><path d="M769 325L816 232L676 285Z" fill="#03121d" stroke="#03121d"></path><path d="M295 475L387 600L418 470Z" fill="#0d1820" stroke="#0d1820"></path><path d="M263 203L212 310L294 313Z" fill="#0f1921" stroke="#0f1921"></path><path d="M261 399L211 415L295 475Z" fill="#08151e" stroke="#08151e"></path><path d="M900 317L816 232L769 325Z" fill="#0f1921" stroke="#0f1921"></path><path d="M402 102L265 134L362 222Z" fill="#0d1820" stroke="#0d1820"></path><path d="M263 203L219 184L212 310Z" fill="#0b171f" stroke="#0b171f"></path><path d="M282 0L265 134L402 102Z" fill="#0d1820" stroke="#0d1820"></path><path d="M212 310L211 415L261 399Z" fill="#0f1921" stroke="#0f1921"></path><path d="M295 475L277 600L387 600Z" fill="#00101c" stroke="#00101c"></path><path d="M579 0L464 0L476 83Z" fill="#05141e" stroke="#05141e"></path><path d="M476 83L420 0L402 102Z" fill="#03121d" stroke="#03121d"></path><path d="M579 0L476 83L595 93Z" fill="#151d23" stroke="#151d23"></path><path d="M695 0L579 0L595 93Z" fill="#03121d" stroke="#03121d"></path><path d="M265 134L219 184L263 203Z" fill="#0d1820" stroke="#0d1820"></path><path d="M615 600L719 600L727 538Z" fill="#171e24" stroke="#171e24"></path><path d="M727 538L838 533L812 396Z" fill="#03121d" stroke="#03121d"></path><path d="M464 0L420 0L476 83Z" fill="#151d23" stroke="#151d23"></path><path d="M816 232L801 131L662 198Z" fill="#00101c" stroke="#00101c"></path><path d="M694 111L695 0L595 93Z" fill="#111a22" stroke="#111a22"></path><path d="M163 535L277 600L295 475Z" fill="#03121d" stroke="#03121d"></path><path d="M801 131L695 0L694 111Z" fill="#08151e" stroke="#08151e"></path><path d="M837 600L838 533L727 538Z" fill="#00101c" stroke="#00101c"></path><path d="M812 396L900 317L769 325Z" fill="#171e24" stroke="#171e24"></path><path d="M900 431L900 317L812 396Z" fill="#00101c" stroke="#00101c"></path><path d="M816 232L900 119L801 131Z" fill="#05141e" stroke="#05141e"></path><path d="M282 0L211 96L265 134Z" fill="#0b171f" stroke="#0b171f"></path><path d="M265 134L211 96L219 184Z" fill="#0f1921" stroke="#0f1921"></path><path d="M219 184L133 279L212 310Z" fill="#03121d" stroke="#03121d"></path><path d="M212 310L133 279L211 415Z" fill="#0b171f" stroke="#0b171f"></path><path d="M73 199L133 279L219 184Z" fill="#08151e" stroke="#08151e"></path><path d="M211 415L163 535L295 475Z" fill="#05141e" stroke="#05141e"></path><path d="M900 317L900 232L816 232Z" fill="#151d23" stroke="#151d23"></path><path d="M801 131L836 0L695 0Z" fill="#0d1820" stroke="#0d1820"></path><path d="M900 481L900 431L812 396Z" fill="#151d23" stroke="#151d23"></path><path d="M420 0L282 0L402 102Z" fill="#03121d" stroke="#03121d"></path><path d="M838 533L900 481L812 396Z" fill="#111a22" stroke="#111a22"></path><path d="M105 533L163 535L211 415Z" fill="#00101c" stroke="#00101c"></path><path d="M163 535L204 600L277 600Z" fill="#111a22" stroke="#111a22"></path><path d="M719 600L837 600L727 538Z" fill="#08151e" stroke="#08151e"></path><path d="M838 533L900 600L900 481Z" fill="#08151e" stroke="#08151e"></path><path d="M900 232L900 119L816 232Z" fill="#111a22" stroke="#111a22"></path><path d="M900 119L836 0L801 131Z" fill="#151d23" stroke="#151d23"></path><path d="M211 96L105 138L219 184Z" fill="#0d1820" stroke="#0d1820"></path><path d="M62 397L105 533L211 415Z" fill="#05141e" stroke="#05141e"></path><path d="M171 0L105 138L211 96Z" fill="#0f1921" stroke="#0f1921"></path><path d="M62 397L211 415L133 279Z" fill="#08151e" stroke="#08151e"></path><path d="M163 535L134 600L204 600Z" fill="#03121d" stroke="#03121d"></path><path d="M0 311L62 397L133 279Z" fill="#08151e" stroke="#08151e"></path><path d="M105 138L73 199L219 184Z" fill="#111a22" stroke="#111a22"></path><path d="M837 600L900 600L838 533Z" fill="#171e24" stroke="#171e24"></path><path d="M105 533L134 600L163 535Z" fill="#08151e" stroke="#08151e"></path><path d="M282 0L171 0L211 96Z" fill="#03121d" stroke="#03121d"></path><path d="M0 233L133 279L73 199Z" fill="#03121d" stroke="#03121d"></path><path d="M900 119L900 0L836 0Z" fill="#131c22" stroke="#131c22"></path><path d="M0 233L73 199L0 121Z" fill="#111a22" stroke="#111a22"></path><path d="M0 233L0 311L133 279Z" fill="#131c22" stroke="#131c22"></path><path d="M62 397L0 536L105 533Z" fill="#0b171f" stroke="#0b171f"></path><path d="M105 533L0 600L134 600Z" fill="#0d1820" stroke="#0d1820"></path><path d="M0 311L0 391L62 397Z" fill="#111a22" stroke="#111a22"></path><path d="M0 121L73 199L105 138Z" fill="#00101c" stroke="#00101c"></path><path d="M171 0L103 0L105 138Z" fill="#0d1820" stroke="#0d1820"></path><path d="M103 0L0 121L105 138Z" fill="#111a22" stroke="#111a22"></path><path d="M0 391L0 536L62 397Z" fill="#05141e" stroke="#05141e"></path><path d="M0 536L0 600L105 533Z" fill="#0b171f" stroke="#0b171f"></path><path d="M103 0L0 0L0 121Z" fill="#0d1820" stroke="#0d1820"></path></g></svg>